<?xml version="1.0" encoding="iso-8859-1"?>
<!-- Uploaded to: SVG Repo, www.svgrepo.com, Generator: SVG Repo Mixer Tools -->
<!DOCTYPE svg PUBLIC "-//W3C//DTD SVG 1.1//EN" "http://www.w3.org/Graphics/SVG/1.1/DTD/svg11.dtd">
<svg fill="#000000" version="1.1" id="Capa_1" xmlns="http://www.w3.org/2000/svg" xmlns:xlink="http://www.w3.org/1999/xlink" 
	 width="800px" height="800px" viewBox="0 0 172.232 172.232"
	 xml:space="preserve">
<g>
	<g>
		<path d="M71.663,59.531H5.51C2.475,59.531,0,62,0,65.045v65.809c0,3.044,2.469,5.517,5.51,5.517h66.146
			c3.036,0,5.511-2.473,5.511-5.517V65.045C77.167,62.006,74.699,59.531,71.663,59.531z M69.392,63.453
			c1.452,0,2.63,1.181,2.63,2.64s-1.172,2.636-2.63,2.636c-1.458,0-2.643-1.178-2.643-2.636
			C66.755,64.634,67.934,63.453,69.392,63.453z M60.526,63.453c1.452,0,2.637,1.181,2.637,2.64s-1.178,2.636-2.637,2.636
			c-1.458,0-2.637-1.178-2.637-2.636S59.062,63.453,60.526,63.453z M51.654,63.453c1.452,0,2.643,1.181,2.643,2.64
			s-1.185,2.636-2.643,2.636c-1.461,0-2.64-1.178-2.64-2.636S50.187,63.453,51.654,63.453z M73.502,130.854
			c0,1.011-0.831,1.839-1.839,1.839H5.51c-1.007,0-1.839-0.828-1.839-1.839V70.805h69.825v60.048H73.502z"/>
		<path d="M166.721,59.531h-66.146c-3.039,0-5.511,2.469-5.511,5.514v65.809c0,3.044,2.472,5.517,5.511,5.517h66.146
			c3.032,0,5.511-2.473,5.511-5.517V65.045C172.238,62.006,169.765,59.531,166.721,59.531z M164.456,63.453
			c1.449,0,2.631,1.181,2.631,2.64s-1.169,2.636-2.631,2.636c-1.461,0-2.643-1.178-2.643-2.636
			C161.819,64.634,162.995,63.453,164.456,63.453z M155.59,63.453c1.449,0,2.636,1.181,2.636,2.64s-1.175,2.636-2.636,2.636
			c-1.462,0-2.644-1.178-2.644-2.636S154.123,63.453,155.59,63.453z M146.712,63.453c1.461,0,2.648,1.181,2.648,2.64
			s-1.188,2.636-2.648,2.636c-1.456,0-2.631-1.178-2.631-2.636S145.25,63.453,146.712,63.453z M168.566,130.854
			c0,1.011-0.834,1.839-1.845,1.839h-66.146c-1.011,0-1.839-0.828-1.839-1.839V70.805h69.824v60.048H168.566z"/>
		<polygon points="95.076,45.216 95.076,42.573 139.649,42.573 139.649,56.578 143.448,56.578 143.448,42.573 143.448,38.761 
			139.649,38.761 95.076,38.761 95.076,35.862 77.174,35.862 77.174,38.761 29.155,38.761 25.346,38.761 25.346,42.573 
			25.346,56.578 29.155,56.578 29.155,42.573 77.174,42.573 77.174,45.216 		"/>
	</g>
</g>
</svg>